HIERARCHY
ROOT Hips
{
	OFFSET 0.000000 97.167313 0.000000
	CHANNELS 6 Xposition Yposition Zposition Xrotation Yrotation Zrotation
	JOINT Spine
	{
		OFFSET 0.000000 13.784798 0.064400
		CHANNELS 3 Xrotation Yrotation Zrotation
		JOINT Spine1
		{
			OFFSET 0.000000 12.037903 0.404700
			CHANNELS 3 Xrotation Yrotation Zrotation
			JOINT Spine2
			{
				OFFSET 0.000000 17.795601 0.420200
				CHANNELS 3 Xrotation Yrotation Zrotation
				JOINT Neck
				{
					OFFSET 0.000000 39.131302 11.954600
					CHANNELS 3 Xrotation Yrotation Zrotation
					JOINT Head
					{
						OFFSET 0.000000 14.456192 15.627699
						CHANNELS 3 Xrotation Yrotation Zrotation
						JOINT HeadTop_End
						{
							OFFSET 0.000000 15.703506 7.603401
							CHANNELS 3 Xrotation Yrotation Zrotation
							End Site
							{
								OFFSET 0.000000 17.447403 0.000000
							}
						}
					}
				}
				JOINT LeftShoulder
				{
					OFFSET 17.399500 24.608795 1.168800
					CHANNELS 3 Xrotation Yrotation Zrotation
					JOINT LeftArm
					{
						OFFSET 18.980635 5.765305 1.818600
						CHANNELS 3 Xrotation Yrotation Zrotation
						JOINT LeftForeArm
						{
							OFFSET 49.290169 0.000000 0.000000
							CHANNELS 3 Xrotation Yrotation Zrotation
							JOINT LeftHand
							{
								OFFSET 31.562012 0.000000 0.000000
								CHANNELS 3 Xrotation Yrotation Zrotation
								JOINT LeftHandThumb1
								{
									OFFSET 6.133995 -4.388519 7.076070
									CHANNELS 3 Xrotation Yrotation Zrotation
									JOINT LeftHandThumb2
									{
										OFFSET 6.037666 -3.485840 3.485847
										CHANNELS 3 Xrotation Yrotation Zrotation
										JOINT LeftHandThumb3
										{
											OFFSET 6.496506 -3.750763 3.750761
											CHANNELS 3 Xrotation Yrotation Zrotation
											JOINT LeftHandThumb4
											{
												OFFSET 5.616882 -3.242905 3.242910
												CHANNELS 3 Xrotation Yrotation Zrotation
												End Site
												{
													OFFSET -1.254608 7.132141 0.375429
												}
											}
										}
									}
								}
								JOINT LeftHandPinky1
								{
									OFFSET 18.920792 -0.453171 -11.426712
									CHANNELS 3 Xrotation Yrotation Zrotation
									JOINT LeftHandPinky2
									{
										OFFSET 4.919586 0.000000 0.000000
										CHANNELS 3 Xrotation Yrotation Zrotation
										JOINT LeftHandPinky3
										{
											OFFSET 5.233047 0.000000 0.000000
											CHANNELS 3 Xrotation Yrotation Zrotation
											JOINT LeftHandPinky4
											{
												OFFSET 5.571716 0.000000 0.000000
												CHANNELS 3 Xrotation Yrotation Zrotation
												End Site
												{
													OFFSET -3.459808 4.342407 -0.466164
												}
											}
										}
									}
								}
								JOINT LeftHandRing1
								{
									OFFSET 22.726120 -0.094986 -6.500475
									CHANNELS 3 Xrotation Yrotation Zrotation
									JOINT LeftHandRing2
									{
										OFFSET 6.408615 0.000000 0.000000
										CHANNELS 3 Xrotation Yrotation Zrotation
										JOINT LeftHandRing3
										{
											OFFSET 6.150223 0.000000 0.000000
											CHANNELS 3 Xrotation Yrotation Zrotation
											JOINT LeftHandRing4
											{
												OFFSET 6.145386 0.000000 0.000000
												CHANNELS 3 Xrotation Yrotation Zrotation
												End Site
												{
													OFFSET -3.671402 4.923981 -0.202372
												}
											}
										}
									}
								}
								JOINT LeftHandMiddle1
								{
									OFFSET 23.373947 0.000000 0.000001
									CHANNELS 3 Xrotation Yrotation Zrotation
									JOINT LeftHandMiddle2
									{
										OFFSET 6.996567 0.000000 0.000000
										CHANNELS 3 Xrotation Yrotation Zrotation
										JOINT LeftHandMiddle3
										{
											OFFSET 7.015945 0.000000 0.000000
											CHANNELS 3 Xrotation Yrotation Zrotation
											JOINT LeftHandMiddle4
											{
												OFFSET 7.721573 0.000000 0.000000
												CHANNELS 3 Xrotation Yrotation Zrotation
												End Site
												{
													OFFSET -4.651108 6.158463 0.251582
												}
											}
										}
									}
								}
								JOINT LeftHandIndex1
								{
									OFFSET 21.310577 -0.490082 6.209344
									CHANNELS 3 Xrotation Yrotation Zrotation
									JOINT LeftHandIndex2
									{
										OFFSET 7.536453 0.000000 0.000000
										CHANNELS 3 Xrotation Yrotation Zrotation
										JOINT LeftHandIndex3
										{
											OFFSET 7.512344 0.000000 0.000000
											CHANNELS 3 Xrotation Yrotation Zrotation
											JOINT LeftHandIndex4
											{
												OFFSET 10.212402 0.000000 0.000001
												CHANNELS 3 Xrotation Yrotation Zrotation
												End Site
												{
													OFFSET -5.180801 8.690506 1.388433
												}
											}
										}
									}
								}
							}
						}
					}
				}
				JOINT RightShoulder
				{
					OFFSET -17.399500 24.608795 1.168800
					CHANNELS 3 Xrotation Yrotation Zrotation
					JOINT RightArm
					{
						OFFSET -18.980635 5.765305 1.818600
						CHANNELS 3 Xrotation Yrotation Zrotation
						JOINT RightForeArm
						{
							OFFSET -49.290169 0.000000 0.000000
							CHANNELS 3 Xrotation Yrotation Zrotation
							JOINT RightHand
							{
								OFFSET -31.562012 0.000000 0.000000
								CHANNELS 3 Xrotation Yrotation Zrotation
								JOINT RightHandThumb1
								{
									OFFSET -6.133995 -4.388519 7.076070
									CHANNELS 3 Xrotation Yrotation Zrotation
									JOINT RightHandThumb2
									{
										OFFSET -6.037666 -3.485840 3.485847
										CHANNELS 3 Xrotation Yrotation Zrotation
										JOINT RightHandThumb3
										{
											OFFSET -6.496506 -3.750763 3.750761
											CHANNELS 3 Xrotation Yrotation Zrotation
											JOINT RightHandThumb4
											{
												OFFSET -5.616882 -3.242905 3.242910
												CHANNELS 3 Xrotation Yrotation Zrotation
												End Site
												{
													OFFSET 1.254608 7.132141 0.375429
												}
											}
										}
									}
								}
								JOINT RightHandIndex1
								{
									OFFSET -21.310577 -0.490082 6.209344
									CHANNELS 3 Xrotation Yrotation Zrotation
									JOINT RightHandIndex2
									{
										OFFSET -7.536453 0.000000 0.000000
										CHANNELS 3 Xrotation Yrotation Zrotation
										JOINT RightHandIndex3
										{
											OFFSET -7.512344 0.000000 0.000000
											CHANNELS 3 Xrotation Yrotation Zrotation
											JOINT RightHandIndex4
											{
												OFFSET -10.212402 0.000000 0.000001
												CHANNELS 3 Xrotation Yrotation Zrotation
												End Site
												{
													OFFSET 5.180801 8.690506 1.388433
												}
											}
										}
									}
								}
								JOINT RightHandMiddle1
								{
									OFFSET -23.373947 0.000000 0.000001
									CHANNELS 3 Xrotation Yrotation Zrotation
									JOINT RightHandMiddle2
									{
										OFFSET -6.996567 0.000000 0.000000
										CHANNELS 3 Xrotation Yrotation Zrotation
										JOINT RightHandMiddle3
										{
											OFFSET -7.015945 0.000000 0.000000
											CHANNELS 3 Xrotation Yrotation Zrotation
											JOINT RightHandMiddle4
											{
												OFFSET -7.721573 0.000000 0.000000
												CHANNELS 3 Xrotation Yrotation Zrotation
												End Site
												{
													OFFSET 4.651108 6.158463 0.251582
												}
											}
										}
									}
								}
								JOINT RightHandRing1
								{
									OFFSET -22.726120 -0.094986 -6.500475
									CHANNELS 3 Xrotation Yrotation Zrotation
									JOINT RightHandRing2
									{
										OFFSET -6.408615 0.000000 0.000000
										CHANNELS 3 Xrotation Yrotation Zrotation
										JOINT RightHandRing3
										{
											OFFSET -6.150223 0.000000 0.000000
											CHANNELS 3 Xrotation Yrotation Zrotation
											JOINT RightHandRing4
											{
												OFFSET -6.145386 0.000000 0.000000
												CHANNELS 3 Xrotation Yrotation Zrotation
												End Site
												{
													OFFSET 3.671402 4.923981 -0.202372
												}
											}
										}
									}
								}
								JOINT RightHandPinky1
								{
									OFFSET -18.920792 -0.453171 -11.426712
									CHANNELS 3 Xrotation Yrotation Zrotation
									JOINT RightHandPinky2
									{
										OFFSET -4.919586 0.000000 0.000000
										CHANNELS 3 Xrotation Yrotation Zrotation
										JOINT RightHandPinky3
										{
											OFFSET -5.233047 0.000000 0.000000
											CHANNELS 3 Xrotation Yrotation Zrotation
											JOINT RightHandPinky4
											{
												OFFSET -5.571716 0.000000 0.000000
												CHANNELS 3 Xrotation Yrotation Zrotation
												End Site
												{
													OFFSET 3.459808 4.342407 -0.466164
												}
											}
										}
									}
								}
							}
						}
					}
				}
			}
		}
	}
	JOINT LeftUpLeg
	{
		OFFSET 19.899099 -7.885101 -3.429500
		CHANNELS 3 Xrotation Yrotation Zrotation
		JOINT LeftLeg
		{
			OFFSET 1.745560 -36.997807 10.304700
			CHANNELS 3 Xrotation Yrotation Zrotation
			JOINT LeftFoot
			{
				OFFSET -1.745558 -29.803308 -13.615400
				CHANNELS 3 Xrotation Yrotation Zrotation
				JOINT LeftToeBase
				{
					OFFSET 1.181900 -18.539904 15.226099
					CHANNELS 3 Xrotation Yrotation Zrotation
					JOINT LeftToe_End
					{
						OFFSET -0.863701 1.402801 16.534700
						CHANNELS 3 Xrotation Yrotation Zrotation
						End Site
						{
							OFFSET 0.000000 16.616566 0.000000
						}
					}
				}
			}
		}
	}
	JOINT RightUpLeg
	{
		OFFSET -19.899099 -7.885101 -3.429500
		CHANNELS 3 Xrotation Yrotation Zrotation
		JOINT RightLeg
		{
			OFFSET -1.745560 -36.997807 10.304700
			CHANNELS 3 Xrotation Yrotation Zrotation
			JOINT RightFoot
			{
				OFFSET 1.745558 -29.803308 -13.615400
				CHANNELS 3 Xrotation Yrotation Zrotation
				JOINT RightToeBase
				{
					OFFSET -1.181900 -18.539904 15.226099
					CHANNELS 3 Xrotation Yrotation Zrotation
					JOINT RightToe_End
					{
						OFFSET 0.863701 1.402801 16.534700
						CHANNELS 3 Xrotation Yrotation Zrotation
						End Site
						{
							OFFSET 0.000000 16.616566 0.000000
						}
					}
				}
			}
		}
	}
}
MOTION
Frames: 6
Frame Time: 0.033333
23.662773 31.025284 21.240856 -42.064564 -5.744377 47.019750 54.222153 -14.147848 1.293579 7.413936 -3.768422 -0.591224 7.443399 -3.797857 -0.257943 1.978328 0.080717 -2.661751 0.934914 -6.611354 -24.300811 -0.000002 0.000001 -0.000000 10.569043 -27.338128 4.199291 -83.070332 -22.431636 -32.822764 -0.000149 -96.988768 -0.000190 -28.311867 15.699454 -32.725755 -2.808594 8.914526 10.965159 5.393262 14.458559 3.414484 -7.401733 1.172024 12.721273 0.000001 0.000001 -0.000001 -0.493367 1.620321 -8.445977 0.024134 0.531671 -5.195553 0.024154 0.532063 -5.199312 -0.000001 0.000002 -0.000002 -0.013553 2.107989 -7.186770 0.014149 0.407511 -3.979739 0.014222 0.408294 -3.987741 -0.000002 0.000001 0.000005 0.093102 2.943972 -5.706516 0.009035 0.325669 -3.179633 0.009055 0.325876 -3.181555 0.000002 -0.000001 0.000004 0.070208 2.630413 -2.598554 0.002421 0.168624 -1.645618 0.002430 0.168788 -1.647477 -0.000003 0.000003 0.000001 1.261529 27.078357 6.302618 3.285128 -50.848009 73.533052 0.000008 46.937401 0.000012 -6.780322 0.639776 -39.086321 6.019575 2.487511 6.855641 -2.504584 1.177586 -14.038019 -19.277524 12.904574 -8.456185 0.000000 0.000001 -0.000000 19.147846 24.617713 -37.572560 0.000003 -0.000890 0.010924 0.157655 1.202748 -14.935155 -0.000002 -0.000003 -0.000002 4.756873 5.611844 -36.370498 0.000002 -0.002373 0.029124 0.157581 1.202453 -14.931454 -0.000000 0.000001 -0.000006 -5.974570 -8.611978 -38.010556 0.000002 -0.001343 0.016444 0.157752 1.203098 -14.939591 0.000001 -0.000000 -0.000003 -18.988870 -16.822607 -27.879009 -0.000000 -0.001321 0.016232 0.157745 1.203046 -14.938995 -0.000002 -0.000002 0.000002 -108.226676 153.042423 38.394713 -115.977008 131.157213 -85.047726 -9.903933 18.906040 322.929213 -20.449882 -3.444394 16.491408 -0.000000 0.000000 -0.000001 -17.326646 -41.881958 38.009303 89.965653 -39.440589 -8.452497 -4.675742 -3.337165 -21.251428 -15.834235 4.820453 -18.913168 -0.000002 -0.000000 0.000000 
24.151474 33.073883 14.764942 -35.936125 -4.595884 49.556741 54.778524 -12.618918 2.433953 7.286338 -3.763240 -0.449173 7.332120 -3.818372 -0.123423 1.232078 -0.093921 -2.916357 -3.188481 -8.012670 -26.237274 -0.000002 0.000000 -0.000000 12.304297 -25.658815 7.998018 -82.649742 -21.194248 -30.806066 0.000491 -95.183829 0.000490 -22.453919 -5.098785 -30.284427 -2.800050 8.924330 10.947347 5.421274 14.513069 3.457328 -7.386815 1.268329 12.745725 -0.000001 0.000001 -0.000002 -0.477335 1.692375 -8.348197 0.023188 0.521358 -5.094353 0.023222 0.521573 -5.096558 -0.000000 0.000004 -0.000005 -0.008863 2.132328 -7.089981 0.013411 0.396631 -3.873468 0.013456 0.397208 -3.879072 0.000001 0.000004 0.000002 0.093122 2.944136 -5.707850 0.008719 0.319920 -3.123429 0.008732 0.320046 -3.124650 -0.000002 -0.000000 0.000008 0.070662 2.640085 -2.707195 0.002204 0.160957 -1.570898 0.002200 0.161084 -1.572103 -0.000003 0.000001 0.000001 0.486497 28.481885 9.734245 -8.873555 -49.667705 59.408453 0.000013 46.121781 0.000011 -10.967826 1.873266 -40.161410 5.990201 2.497584 6.826913 -2.475495 1.126883 -14.029372 -19.255744 12.836295 -8.487774 -0.000001 0.000003 -0.000000 19.079389 24.644921 -37.430769 0.000001 -0.001579 0.019323 0.157371 1.201690 -14.921733 -0.000000 -0.000001 0.000001 4.729572 5.602921 -36.220312 0.000001 -0.003848 0.047192 0.157236 1.201173 -14.915173 0.000000 0.000000 -0.000001 -5.944892 -8.625127 -37.851040 0.000001 -0.002371 0.029088 0.157190 1.200989 -14.912808 -0.000001 -0.000003 -0.000002 -18.918697 -16.843282 -27.768377 -0.000000 -0.002347 0.028705 0.157201 1.201003 -14.912842 0.000002 -0.000001 0.000000 -157.551017 116.156519 112.731056 -67.376866 153.770467 -155.979514 -25.161053 5.169431 342.704250 -16.605044 -4.315319 17.663679 -0.000000 -0.000001 0.000000 -22.219176 -37.947326 36.103523 85.834072 -43.698919 -10.350525 -19.568002 1.273110 -30.978101 -10.479412 1.458528 -11.116884 0.000000 -0.000000 0.000001 
23.035835 35.983295 6.737202 -31.279756 -1.579310 50.908077 55.749643 -11.629995 4.488745 7.266755 -3.904487 -0.161797 7.303368 -3.997235 0.189662 0.681619 -0.129851 -3.206309 -7.664691 -8.971627 -28.320278 -0.000002 0.000001 -0.000002 13.691634 -25.060857 9.716759 -78.547640 -19.952246 -25.691188 -0.000044 -95.762360 -0.000036 -15.529914 -14.805680 -22.692854 -2.782444 8.662013 10.718481 5.766146 14.938653 3.382883 -7.231191 2.252298 13.009210 -0.000001 0.000002 0.000000 -0.407315 1.990321 -9.123762 0.031088 0.603409 -5.898822 0.031084 0.603273 -5.897596 0.000000 0.000001 -0.000000 0.005639 2.354235 -8.031590 0.020911 0.495159 -4.837687 0.020936 0.495373 -4.839878 -0.000001 -0.000001 0.000005 0.104094 3.044948 -6.696557 0.014570 0.413342 -4.036967 0.014553 0.413261 -4.036047 -0.000001 -0.000003 0.000008 0.077031 2.745615 -3.763701 0.004834 0.238227 -2.325285 0.004835 0.238122 -2.324555 -0.000003 0.000003 0.000002 -0.251816 29.568490 12.801423 -21.504227 -45.802210 46.350473 0.000021 42.899038 -0.000018 -14.046403 3.821531 -40.248703 5.982411 2.499876 6.819160 -2.468928 1.117013 -14.026781 -19.250045 12.823789 -8.493767 0.000001 -0.000004 0.000004 19.088886 24.632749 -37.459831 0.000001 -0.000060 0.000695 0.157999 1.204041 -14.951576 -0.000002 0.000000 0.000001 4.733806 5.601493 -36.258814 0.000003 -0.001908 0.023438 0.157998 1.204019 -14.951349 0.000001 0.000000 -0.000001 -5.947492 -8.614807 -37.892319 0.000001 -0.000084 0.001058 0.157912 1.203692 -14.947119 0.000001 -0.000002 -0.000003 -18.907386 -16.840977 -27.791194 0.000003 -0.000085 0.001039 0.157918 1.203708 -14.947398 -0.000002 -0.000001 0.000004 -198.481527 132.705999 171.234974 -67.730184 176.236666 -174.509899 -20.646994 3.118949 345.644182 -17.132466 -2.765903 10.456741 -0.000000 0.000000 0.000000 -30.756034 -32.027655 30.592247 77.646205 -37.481295 -9.306948 -25.113385 -1.343205 -35.994311 -7.766962 0.021488 -1.403123 -0.000000 -0.000000 0.000001 
22.283501 39.169426 -0.808403 -27.399536 2.975490 51.660791 55.118319 -11.155586 7.551330 7.105147 -4.082097 0.270644 7.109672 -4.198052 0.646746 0.649506 -0.152815 -3.569068 -11.479724 -9.440375 -30.854526 0.000001 0.000001 0.000001 15.011241 -26.221894 8.536100 -72.004886 -18.949154 -19.285148 -0.000051 -97.760457 -0.000093 -11.254249 -18.814057 -15.301241 -2.758320 8.116262 10.283917 6.410331 15.730663 3.186979 -6.958204 4.084907 13.480096 0.000001 -0.000002 -0.000002 -0.254355 2.494585 -10.668820 0.049945 0.764176 -7.478739 0.049929 0.764086 -7.477951 -0.000000 0.000000 -0.000006 0.045005 2.755735 -9.890519 0.040369 0.687348 -6.723025 0.040387 0.687473 -6.724329 -0.000002 0.000001 0.000002 0.130029 3.237785 -8.597859 0.030089 0.593631 -5.802933 0.030080 0.593580 -5.802490 0.000000 0.000001 0.000006 0.093656 2.947115 -5.743167 0.012890 0.388747 -3.796311 0.012875 0.388696 -3.795872 -0.000000 0.000003 0.000001 -0.809075 30.239758 15.068241 -31.632829 -40.816527 36.217570 0.000013 38.603502 -0.000035 -15.356311 5.882262 -39.914201 5.990592 2.496924 6.827021 -2.476895 1.131085 -14.029559 -19.258970 12.842219 -8.484945 0.000001 -0.000003 0.000004 19.115790 24.633497 -37.502694 0.000002 0.000002 0.000004 0.158023 1.204125 -14.952686 -0.000000 0.000000 0.000001 4.741620 5.603997 -36.302117 -0.000002 -0.001960 0.024063 0.158027 1.204123 -14.952696 0.000000 0.000000 -0.000008 -5.955939 -8.610866 -37.938368 -0.000002 -0.000000 -0.000002 0.158025 1.204123 -14.952696 -0.000001 -0.000001 -0.000007 -18.926859 -16.835113 -27.823061 0.000004 0.000003 0.000005 0.158030 1.204131 -14.952683 0.000000 -0.000002 0.000005 -193.966649 144.870170 179.336848 -71.220302 181.255817 -178.329628 -24.384646 4.407204 347.357904 -12.587035 0.399113 -2.606036 -0.000000 -0.000001 0.000000 -43.392673 -24.370947 27.469522 66.022835 -32.547337 -9.264399 -11.704765 -12.011983 -49.693342 -13.016052 -0.000005 -0.000014 -0.000000 -0.000000 0.000002 
22.083817 42.167381 -7.441274 -23.450148 7.992090 52.156079 52.281540 -10.837807 11.083375 6.738719 -4.183227 0.788846 6.710306 -4.288097 1.156824 0.921466 -0.269962 -4.086155 -14.369888 -9.541123 -33.769254 -0.000002 -0.000000 0.000001 15.380379 -28.427953 3.543286 -63.264668 -17.810137 -12.975228 -0.000178 -99.401266 -0.000198 -7.671944 -21.581840 -8.517048 -2.733873 7.272348 9.642250 7.350907 16.874302 2.845224 -6.592047 6.745022 14.141844 -0.000000 0.000001 -0.000001 -0.009810 3.207266 -12.984389 0.086223 1.002456 -9.831674 0.086245 1.002610 -9.832820 -0.000003 0.000001 -0.000007 0.138318 3.338494 -12.665552 0.080946 0.971502 -9.524958 0.080955 0.971604 -9.526018 -0.000002 -0.000000 0.000005 0.179878 3.520044 -11.402635 0.063206 0.859143 -8.414731 0.063218 0.859334 -8.416370 -0.000001 -0.000001 0.000004 0.131811 3.237265 -8.629521 0.031955 0.611772 -5.980891 0.031970 0.611871 -5.981963 -0.000002 0.000005 0.000002 -1.172816 30.334564 16.542781 -36.986151 -35.815818 28.982767 0.000005 35.883700 -0.000000 -16.359503 6.977131 -40.213767 5.993156 2.496046 6.829451 -2.478966 1.134361 -14.030698 -19.260507 12.846519 -8.482947 -0.000001 -0.000001 0.000001 19.112983 24.635678 -37.495761 0.000001 -0.000063 0.000724 0.157997 1.204031 -14.951472 -0.000001 -0.000001 0.000001 4.740708 5.604485 -36.292869 0.000004 -0.003038 0.037264 0.157993 1.204010 -14.951245 -0.000000 -0.000000 -0.000001 -5.955516 -8.613620 -37.928430 -0.000001 -0.000098 0.001138 0.158013 1.204063 -14.951831 -0.000000 0.000001 -0.000005 -18.930679 -16.835615 -27.817532 0.000003 -0.000089 0.001124 0.158014 1.204059 -14.951788 -0.000000 -0.000000 0.000007 -186.280692 153.751219 182.314565 -77.205166 183.129652 -178.161304 -20.956002 1.792822 347.804625 -13.696584 2.336484 -15.564572 0.000002 0.000002 -0.000000 -58.675901 -17.349551 21.872940 59.299217 -23.978147 -8.589046 7.784496 -22.112913 -49.628738 -17.963300 0.000008 0.000010 -0.000001 -0.000000 0.000000 
21.474228 45.171391 -12.689956 -18.907599 12.512551 51.975018 48.384913 -10.540257 14.270107 6.300085 -4.213116 1.285931 6.250609 -4.283562 1.622329 1.110974 -0.451267 -4.729588 -16.655573 -9.450005 -36.631561 0.000001 -0.000001 0.000001 14.929573 -30.345390 -3.596811 -50.815839 -15.941501 -7.996308 -0.000148 -99.060194 -0.000157 -4.980739 -22.607445 -3.401997 -2.703868 6.102392 8.736583 8.657458 18.353210 2.252823 -6.127081 10.282555 15.051684 0.000000 0.000002 -0.000001 0.349496 4.226271 -16.663261 0.163639 1.376413 -13.560240 0.163675 1.376535 -13.561385 -0.000003 0.000005 -0.000003 0.357862 4.191053 -17.019841 0.172161 1.411222 -13.910199 0.172186 1.411255 -13.910566 -0.000001 0.000000 0.000002 0.277774 3.928500 -15.504500 0.136541 1.258683 -12.380760 0.136539 1.258759 -12.381288 0.000001 -0.000002 0.000008 0.204648 3.631705 -12.520809 0.078546 0.957135 -9.382744 0.078552 0.957170 -9.383293 0.000001 0.000002 -0.000003 -1.381918 29.752587 17.457190 -38.137512 -30.212481 24.083795 0.000006 34.823781 0.000003 -17.977215 6.915550 -41.146306 5.990307 2.497517 6.827145 -2.476752 1.129940 -14.028520 -19.258562 12.840389 -8.485760 -0.000001 -0.000002 0.000004 19.107353 24.637829 -37.484181 0.000000 -0.000114 0.001413 0.157974 1.203941 -14.950301 -0.000003 -0.000003 -0.000001 4.738398 5.603661 -36.280527 0.000003 -0.003506 0.043043 0.157965 1.203898 -14.949809 0.000001 0.000001 -0.000004 -5.952966 -8.614591 -37.915179 0.000003 -0.000186 0.002232 0.157966 1.203899 -14.949739 0.000000 0.000003 -0.000001 -18.924820 -16.837309 -27.807915 0.000002 -0.000189 0.002214 0.157970 1.203895 -14.949732 0.000002 -0.000001 0.000004 -179.632732 162.490583 182.213683 -89.438336 183.356879 -177.449667 -9.131646 -4.103512 347.047349 -20.669254 6.597336 -25.503691 -0.000001 -0.000002 0.000001 -65.633241 -12.253230 17.655571 51.462146 -21.939105 -7.906007 16.258258 -23.422812 -50.012353 -19.987340 -0.000005 -0.000001 -0.000000 0.000000 -0.000000 
